<?xml version="1.0" encoding="UTF-8" standalone="no"?>
<!DOCTYPE svg PUBLIC "-//W3C//DTD SVG 1.1//EN"
 "http://www.w3.org/Graphics/SVG/1.1/DTD/svg11.dtd">
<!-- Generated by graphviz version 2.40.1 (20161225.0304)
 -->
<!-- Title: %3 Pages: 1 -->
<svg width="417pt" height="805pt"
 viewBox="0.00 0.00 417.41 805.11" xmlns="http://www.w3.org/2000/svg" xmlns:xlink="http://www.w3.org/1999/xlink">
<g id="graph0" class="graph" transform="scale(1 1) rotate(0) translate(4 801.1123)">
<title>%3</title>
<polygon fill="#ffffff" stroke="transparent" points="-4,4 -4,-801.1123 413.413,-801.1123 413.413,4 -4,4"/>
<!-- 69421ac686294bbde71b9a04e5c2bb7aeb7ee3eb -->
<g id="node1" class="node">
<title>69421ac686294bbde71b9a04e5c2bb7aeb7ee3eb</title>
<polygon fill="#ffd700" stroke="#ffd700" points="283.8553,-480.0871 230.8553,-480.0871 230.8553,-427.0871 283.8553,-427.0871 283.8553,-480.0871"/>
<text text-anchor="middle" x="257.3553" y="-449.8871" font-family="Times,serif" font-size="14.00" fill="#000000">Fourth</text>
</g>
<!-- dccbfac8a9d6cb539062a3281490bfcc7b0f8339 -->
<g id="node5" class="node">
<title>dccbfac8a9d6cb539062a3281490bfcc7b0f8339</title>
<ellipse fill="none" stroke="#000000" cx="275.3553" cy="-341.6635" rx="37.4556" ry="37.4556"/>
<ellipse fill="none" stroke="#000000" cx="275.3553" cy="-341.6635" rx="41.4533" ry="41.4533"/>
<text text-anchor="middle" x="275.3553" y="-345.4635" font-family="Times,serif" font-size="14.00" fill="#000000">Fourth</text>
<text text-anchor="middle" x="275.3553" y="-330.4635" font-family="Times,serif" font-size="14.00" fill="#000000">`s tree</text>
</g>
<!-- 69421ac686294bbde71b9a04e5c2bb7aeb7ee3eb&#45;&gt;dccbfac8a9d6cb539062a3281490bfcc7b0f8339 -->
<g id="edge2" class="edge">
<title>69421ac686294bbde71b9a04e5c2bb7aeb7ee3eb&#45;&gt;dccbfac8a9d6cb539062a3281490bfcc7b0f8339</title>
<path fill="none" stroke="#000000" d="M261.6211,-427.0628C263.2614,-416.8633 265.195,-404.84 267.0854,-393.0856"/>
<polygon fill="#000000" stroke="#000000" points="270.5948,-393.3067 268.7271,-382.8778 263.6836,-392.1952 270.5948,-393.3067"/>
</g>
<!-- 598b90fcb184868e01308468e0072ca2997b224e -->
<g id="node2" class="node">
<title>598b90fcb184868e01308468e0072ca2997b224e</title>
<polygon fill="#ffd700" stroke="#ffd700" points="100.3553,-797.1123 62.3553,-797.1123 62.3553,-759.1123 100.3553,-759.1123 100.3553,-797.1123"/>
<text text-anchor="middle" x="81.3553" y="-774.4123" font-family="Times,serif" font-size="14.00" fill="#000000">first</text>
</g>
<!-- bc2e61f5ae60b646cd9ee878c0e43866788ba521 -->
<g id="node4" class="node">
<title>bc2e61f5ae60b646cd9ee878c0e43866788ba521</title>
<polygon fill="#ffd700" stroke="#ffd700" points="150.3553,-710.7569 96.3553,-710.7569 96.3553,-656.7569 150.3553,-656.7569 150.3553,-710.7569"/>
<text text-anchor="middle" x="123.3553" y="-680.0569" font-family="Times,serif" font-size="14.00" fill="#000000">second</text>
</g>
<!-- 598b90fcb184868e01308468e0072ca2997b224e&#45;&gt;bc2e61f5ae60b646cd9ee878c0e43866788ba521 -->
<g id="edge15" class="edge">
<title>598b90fcb184868e01308468e0072ca2997b224e&#45;&gt;bc2e61f5ae60b646cd9ee878c0e43866788ba521</title>
<path fill="none" stroke="#000000" d="M89.8547,-759.0181C94.7924,-747.9251 101.18,-733.5752 107.0513,-720.3849"/>
<polygon fill="#000000" stroke="#000000" points="110.3381,-721.6075 111.2072,-711.0484 103.943,-718.7609 110.3381,-721.6075"/>
</g>
<!-- 5efb9bc29c482e023e40e0a2b3b7e49cec842034 -->
<g id="node12" class="node">
<title>5efb9bc29c482e023e40e0a2b3b7e49cec842034</title>
<ellipse fill="none" stroke="#000000" cx="39.3553" cy="-683.7569" rx="35.2259" ry="35.2259"/>
<ellipse fill="none" stroke="#000000" cx="39.3553" cy="-683.7569" rx="39.2112" ry="39.2112"/>
<text text-anchor="middle" x="39.3553" y="-687.5569" font-family="Times,serif" font-size="14.00" fill="#000000">first</text>
<text text-anchor="middle" x="39.3553" y="-672.5569" font-family="Times,serif" font-size="14.00" fill="#000000">`s tree</text>
</g>
<!-- 598b90fcb184868e01308468e0072ca2997b224e&#45;&gt;5efb9bc29c482e023e40e0a2b3b7e49cec842034 -->
<g id="edge9" class="edge">
<title>598b90fcb184868e01308468e0072ca2997b224e&#45;&gt;5efb9bc29c482e023e40e0a2b3b7e49cec842034</title>
<path fill="none" stroke="#000000" d="M72.856,-759.0181C68.9999,-750.355 64.2596,-739.7057 59.5714,-729.1735"/>
<polygon fill="#000000" stroke="#000000" points="62.7527,-727.7135 55.4885,-720.001 56.3576,-730.5602 62.7527,-727.7135"/>
</g>
<!-- a4ff599a51f3e7f8d35dbd8b82a66feeb94c06e8 -->
<g id="node3" class="node">
<title>a4ff599a51f3e7f8d35dbd8b82a66feeb94c06e8</title>
<polygon fill="#ffd700" stroke="#ffd700" points="211.3553,-587.2178 169.3553,-587.2178 169.3553,-545.2178 211.3553,-545.2178 211.3553,-587.2178"/>
<text text-anchor="middle" x="190.3553" y="-562.5178" font-family="Times,serif" font-size="14.00" fill="#000000">third</text>
</g>
<!-- a4ff599a51f3e7f8d35dbd8b82a66feeb94c06e8&#45;&gt;69421ac686294bbde71b9a04e5c2bb7aeb7ee3eb -->
<g id="edge1" class="edge">
<title>a4ff599a51f3e7f8d35dbd8b82a66feeb94c06e8&#45;&gt;69421ac686294bbde71b9a04e5c2bb7aeb7ee3eb</title>
<path fill="none" stroke="#000000" d="M202.9575,-545.0328C212.3395,-529.2613 225.3623,-507.3692 236.3138,-488.9592"/>
<polygon fill="#000000" stroke="#000000" points="239.394,-490.6271 241.4985,-480.2433 233.378,-487.0483 239.394,-490.6271"/>
</g>
<!-- e8598d905af5fdb792208e25f6dc0a6b8c9ee19d -->
<g id="node14" class="node">
<title>e8598d905af5fdb792208e25f6dc0a6b8c9ee19d</title>
<ellipse fill="none" stroke="#000000" cx="176.3553" cy="-341.6635" rx="35.2259" ry="35.2259"/>
<ellipse fill="none" stroke="#000000" cx="176.3553" cy="-341.6635" rx="39.2112" ry="39.2112"/>
<text text-anchor="middle" x="176.3553" y="-345.4635" font-family="Times,serif" font-size="14.00" fill="#000000">third</text>
<text text-anchor="middle" x="176.3553" y="-330.4635" font-family="Times,serif" font-size="14.00" fill="#000000">`s tree</text>
</g>
<!-- a4ff599a51f3e7f8d35dbd8b82a66feeb94c06e8&#45;&gt;e8598d905af5fdb792208e25f6dc0a6b8c9ee19d -->
<g id="edge12" class="edge">
<title>a4ff599a51f3e7f8d35dbd8b82a66feeb94c06e8&#45;&gt;e8598d905af5fdb792208e25f6dc0a6b8c9ee19d</title>
<path fill="none" stroke="#000000" d="M189.0383,-545.0923C186.8631,-510.2038 182.4627,-439.6226 179.462,-391.4924"/>
<polygon fill="#000000" stroke="#000000" points="182.941,-391.0461 178.8255,-381.2833 175.9546,-391.4818 182.941,-391.0461"/>
</g>
<!-- bc2e61f5ae60b646cd9ee878c0e43866788ba521&#45;&gt;a4ff599a51f3e7f8d35dbd8b82a66feeb94c06e8 -->
<g id="edge11" class="edge">
<title>bc2e61f5ae60b646cd9ee878c0e43866788ba521&#45;&gt;a4ff599a51f3e7f8d35dbd8b82a66feeb94c06e8</title>
<path fill="none" stroke="#000000" d="M138.8949,-656.4957C149.1466,-638.5109 162.5843,-614.937 173.1572,-596.3888"/>
<polygon fill="#000000" stroke="#000000" points="176.33,-597.8902 178.2416,-587.4692 170.2486,-594.4236 176.33,-597.8902"/>
</g>
<!-- b07d65218926c8f7eed55b8181170250a31da6f4 -->
<g id="node15" class="node">
<title>b07d65218926c8f7eed55b8181170250a31da6f4</title>
<ellipse fill="none" stroke="#000000" cx="109.3553" cy="-566.2178" rx="38.3508" ry="38.3508"/>
<ellipse fill="none" stroke="#000000" cx="109.3553" cy="-566.2178" rx="42.3683" ry="42.3683"/>
<text text-anchor="middle" x="109.3553" y="-570.0178" font-family="Times,serif" font-size="14.00" fill="#000000">second</text>
<text text-anchor="middle" x="109.3553" y="-555.0178" font-family="Times,serif" font-size="14.00" fill="#000000">`s tree</text>
</g>
<!-- bc2e61f5ae60b646cd9ee878c0e43866788ba521&#45;&gt;b07d65218926c8f7eed55b8181170250a31da6f4 -->
<g id="edge16" class="edge">
<title>bc2e61f5ae60b646cd9ee878c0e43866788ba521&#45;&gt;b07d65218926c8f7eed55b8181170250a31da6f4</title>
<path fill="none" stroke="#000000" d="M120.1083,-656.4957C118.7698,-645.2582 117.1714,-631.8386 115.6215,-618.8263"/>
<polygon fill="#000000" stroke="#000000" points="119.0531,-618.0434 114.3948,-608.5276 112.1022,-618.8714 119.0531,-618.0434"/>
</g>
<!-- 397b724bfdb71f5652eab347df11cd9398c47dd6 -->
<g id="node6" class="node">
<title>397b724bfdb71f5652eab347df11cd9398c47dd6</title>
<ellipse fill="none" stroke="#000000" cx="326.3553" cy="-221.8403" rx="38.2082" ry="38.2082"/>
<ellipse fill="none" stroke="#000000" cx="326.3553" cy="-221.8403" rx="42.1937" ry="42.1937"/>
<text text-anchor="middle" x="326.3553" y="-218.1403" font-family="Times,serif" font-size="14.00" fill="#000000">a folder</text>
</g>
<!-- dccbfac8a9d6cb539062a3281490bfcc7b0f8339&#45;&gt;397b724bfdb71f5652eab347df11cd9398c47dd6 -->
<g id="edge3" class="edge">
<title>dccbfac8a9d6cb539062a3281490bfcc7b0f8339&#45;&gt;397b724bfdb71f5652eab347df11cd9398c47dd6</title>
<path fill="none" stroke="#000000" d="M291.6323,-303.4212C296.0965,-292.9326 300.9967,-281.4198 305.6725,-270.434"/>
<polygon fill="#000000" stroke="#000000" points="309.0114,-271.5264 309.7073,-260.9544 302.5705,-268.7849 309.0114,-271.5264"/>
</g>
<!-- e69de29bb2d1d6434b8b29ae775ad8c2e48c5391new.txt -->
<g id="node9" class="node">
<title>e69de29bb2d1d6434b8b29ae775ad8c2e48c5391new.txt</title>
<ellipse fill="none" stroke="#000000" cx="142.3553" cy="-221.8403" rx="37.0935" ry="37.0935"/>
<text text-anchor="middle" x="142.3553" y="-218.1403" font-family="Times,serif" font-size="14.00" fill="#000000">new.txt</text>
</g>
<!-- dccbfac8a9d6cb539062a3281490bfcc7b0f8339&#45;&gt;e69de29bb2d1d6434b8b29ae775ad8c2e48c5391new.txt -->
<g id="edge6" class="edge">
<title>dccbfac8a9d6cb539062a3281490bfcc7b0f8339&#45;&gt;e69de29bb2d1d6434b8b29ae775ad8c2e48c5391new.txt</title>
<path fill="none" stroke="#000000" d="M244.2401,-314.1769C227.6006,-299.4219 206.7963,-280.8841 188.3553,-264.1869 184.8199,-260.9857 181.143,-257.636 177.4774,-254.283"/>
<polygon fill="#000000" stroke="#000000" points="179.7537,-251.6216 170.0179,-247.4424 175.0226,-256.7807 179.7537,-251.6216"/>
</g>
<!-- 190a18037c64c43e6b11489df4bf0b9eb6d2c9bftest.txt -->
<g id="node10" class="node">
<title>190a18037c64c43e6b11489df4bf0b9eb6d2c9bftest.txt</title>
<ellipse fill="none" stroke="#000000" cx="231.3553" cy="-221.8403" rx="34.394" ry="34.394"/>
<text text-anchor="middle" x="231.3553" y="-218.1403" font-family="Times,serif" font-size="14.00" fill="#000000">test.txt</text>
</g>
<!-- dccbfac8a9d6cb539062a3281490bfcc7b0f8339&#45;&gt;190a18037c64c43e6b11489df4bf0b9eb6d2c9bftest.txt -->
<g id="edge7" class="edge">
<title>dccbfac8a9d6cb539062a3281490bfcc7b0f8339&#45;&gt;190a18037c64c43e6b11489df4bf0b9eb6d2c9bftest.txt</title>
<path fill="none" stroke="#000000" d="M260.9481,-302.4289C256.4391,-290.1498 251.4451,-276.5498 246.8637,-264.0734"/>
<polygon fill="#000000" stroke="#000000" points="250.0276,-262.5357 243.295,-254.355 243.4566,-264.9486 250.0276,-262.5357"/>
</g>
<!-- 32168c7c24ff8137e4faa9848cafbb0ce255ed66text.txt -->
<g id="node7" class="node">
<title>32168c7c24ff8137e4faa9848cafbb0ce255ed66text.txt</title>
<ellipse fill="none" stroke="#000000" cx="326.3553" cy="-107.7468" rx="35.9954" ry="35.9954"/>
<text text-anchor="middle" x="326.3553" y="-104.0468" font-family="Times,serif" font-size="14.00" fill="#000000">text.txt</text>
</g>
<!-- 397b724bfdb71f5652eab347df11cd9398c47dd6&#45;&gt;32168c7c24ff8137e4faa9848cafbb0ce255ed66text.txt -->
<g id="edge4" class="edge">
<title>397b724bfdb71f5652eab347df11cd9398c47dd6&#45;&gt;32168c7c24ff8137e4faa9848cafbb0ce255ed66text.txt</title>
<path fill="none" stroke="#000000" d="M326.3553,-179.3561C326.3553,-170.9782 326.3553,-162.1513 326.3553,-153.666"/>
<polygon fill="#000000" stroke="#000000" points="329.8554,-153.5385 326.3553,-143.5385 322.8554,-153.5386 329.8554,-153.5385"/>
</g>
<!-- 32168c7c24ff8137e4faa9848cafbb0ce255ed66 -->
<g id="node8" class="node">
<title>32168c7c24ff8137e4faa9848cafbb0ce255ed66</title>
<polygon fill="none" stroke="#000000" points="334.0466,-.0493 339.1388,-.1479 344.1783,-.2953 349.1447,-.4913 354.0176,-.7353 358.7777,-1.0266 363.4061,-1.3645 367.8848,-1.7479 372.1968,-2.1759 376.326,-2.6472 380.2577,-3.1606 383.9781,-3.7147 387.4748,-4.308 390.7368,-4.9388 393.7543,-5.6054 396.5192,-6.3059 399.0245,-7.0385 401.2649,-7.8012 403.2365,-8.5918 404.9366,-9.4082 406.3644,-10.2481 407.5199,-11.1093 408.4049,-11.9894 409.0221,-12.886 409.3757,-13.7965 409.4708,-14.7186 409.3137,-15.6497 408.9117,-16.5873 408.2727,-17.5287 407.4056,-18.4713 406.3199,-19.4127 405.0257,-20.3503 403.5335,-21.2814 401.8541,-22.2035 399.9987,-23.114 397.9785,-24.0106 395.8048,-24.8907 393.4889,-25.7519 391.0418,-26.5918 388.4745,-27.4082 385.7976,-28.1988 383.0213,-28.9615 380.1555,-29.6941 377.2094,-30.3946 374.1918,-31.0612 371.1111,-31.692 367.9749,-32.2853 364.7904,-32.8394 361.5641,-33.3528 358.302,-33.8241 355.0093,-34.2521 351.691,-34.6355 348.3513,-34.9734 344.9942,-35.2647 341.6231,-35.5087 338.241,-35.7047 334.8507,-35.8521 331.4548,-35.9507 328.0555,-36 324.6552,-36 321.2559,-35.9507 317.8599,-35.8521 314.4697,-35.7047 311.0876,-35.5087 307.7165,-35.2647 304.3594,-34.9734 301.0197,-34.6355 297.7014,-34.2521 294.4087,-33.8241 291.1465,-33.3528 287.9202,-32.8394 284.7357,-32.2853 281.5996,-31.692 278.5189,-31.0612 275.5013,-30.3946 272.5552,-29.6941 269.6893,-28.9615 266.913,-28.1988 264.2361,-27.4082 261.6689,-26.5918 259.2218,-25.7519 256.9059,-24.8907 254.7322,-24.0106 252.712,-23.114 250.8566,-22.2035 249.1772,-21.2814 247.685,-20.3503 246.3908,-19.4127 245.3051,-18.4713 244.438,-17.5287 243.799,-16.5873 243.397,-15.6497 243.2399,-14.7186 243.335,-13.7965 243.6886,-12.886 244.3058,-11.9894 245.1908,-11.1093 246.3463,-10.2481 247.774,-9.4082 249.4742,-8.5918 251.4458,-7.8012 253.6862,-7.0385 256.1915,-6.3059 258.9563,-5.6054 261.9739,-4.9388 265.2359,-4.308 268.7326,-3.7147 272.453,-3.1606 276.3846,-2.6472 280.5139,-2.1759 284.8259,-1.7479 289.3046,-1.3645 293.933,-1.0266 298.6931,-.7353 303.566,-.4913 308.5323,-.2953 313.5719,-.1479 318.6641,-.0493 323.7881,0 328.9226,0 334.0466,-.0493"/>
<text text-anchor="middle" x="326.3553" y="-14.3" font-family="Times,serif" font-size="14.00" fill="#000000">commit number 4!</text>
</g>
<!-- 32168c7c24ff8137e4faa9848cafbb0ce255ed66text.txt&#45;&gt;32168c7c24ff8137e4faa9848cafbb0ce255ed66 -->
<g id="edge5" class="edge">
<title>32168c7c24ff8137e4faa9848cafbb0ce255ed66text.txt&#45;&gt;32168c7c24ff8137e4faa9848cafbb0ce255ed66</title>
<path fill="none" stroke="#000000" d="M326.3553,-71.7605C326.3553,-63.2157 326.3553,-54.2231 326.3553,-46.09"/>
<polygon fill="#000000" stroke="#000000" points="329.8554,-46.0031 326.3553,-36.0031 322.8554,-46.0032 329.8554,-46.0031"/>
</g>
<!-- 190a18037c64c43e6b11489df4bf0b9eb6d2c9bf -->
<g id="node11" class="node">
<title>190a18037c64c43e6b11489df4bf0b9eb6d2c9bf</title>
<polygon fill="none" stroke="#000000" points="234.0379,-89.7962 235.8139,-89.8947 237.5716,-90.0422 239.3038,-90.2382 241.0034,-90.4822 242.6636,-90.7735 244.2779,-91.1113 245.84,-91.4947 247.3439,-91.9227 248.7841,-92.394 250.1554,-92.9075 251.453,-93.4616 252.6726,-94.0548 253.8103,-94.6856 254.8627,-95.3522 255.827,-96.0528 256.7009,-96.7854 257.4823,-97.548 258.1699,-98.3386 258.7629,-99.155 259.2608,-99.995 259.6639,-100.8562 259.9725,-101.7362 260.1878,-102.6328 260.3111,-103.5434 260.3443,-104.4655 260.2895,-105.3966 260.1493,-106.3341 259.9264,-107.2755 259.624,-108.2182 259.2453,-109.1596 258.7939,-110.0971 258.2735,-111.0282 257.6878,-111.9503 257.0406,-112.8609 256.336,-113.7574 255.5779,-114.6375 254.7701,-115.4987 253.9167,-116.3386 253.0212,-117.155 252.0876,-117.9456 251.1193,-118.7083 250.1197,-119.4409 249.0922,-120.1415 248.0397,-120.808 246.9652,-121.4388 245.8714,-122.0321 244.7607,-122.5862 243.6354,-123.0996 242.4977,-123.571 241.3492,-123.9989 240.1919,-124.3824 239.0271,-124.7202 237.8562,-125.0115 236.6804,-125.2555 235.5008,-125.4515 234.3184,-125.599 233.1339,-125.6975 231.9483,-125.7468 230.7623,-125.7468 229.5768,-125.6975 228.3923,-125.599 227.2099,-125.4515 226.0303,-125.2555 224.8545,-125.0115 223.6836,-124.7202 222.5188,-124.3824 221.3614,-123.9989 220.213,-123.571 219.0752,-123.0996 217.95,-122.5862 216.8393,-122.0321 215.7454,-121.4388 214.671,-120.808 213.6185,-120.1415 212.591,-119.4409 211.5914,-118.7083 210.6231,-117.9456 209.6894,-117.155 208.794,-116.3386 207.9405,-115.4987 207.1328,-114.6375 206.3747,-113.7574 205.6701,-112.8609 205.0229,-111.9503 204.4372,-111.0282 203.9167,-110.0971 203.4653,-109.1596 203.0867,-108.2182 202.7843,-107.2755 202.5614,-106.3341 202.4212,-105.3966 202.3664,-104.4655 202.3996,-103.5434 202.5229,-102.6328 202.7382,-101.7362 203.0468,-100.8562 203.4498,-99.995 203.9478,-99.155 204.5408,-98.3386 205.2284,-97.548 206.0098,-96.7854 206.8836,-96.0528 207.848,-95.3522 208.9004,-94.6856 210.0381,-94.0548 211.2577,-93.4616 212.5553,-92.9075 213.9266,-92.394 215.3668,-91.9227 216.8707,-91.4947 218.4328,-91.1113 220.0471,-90.7735 221.7073,-90.4822 223.4069,-90.2382 225.139,-90.0422 226.8967,-89.8947 228.6728,-89.7962 230.4599,-89.7468 232.2508,-89.7468 234.0379,-89.7962"/>
<text text-anchor="middle" x="231.3553" y="-104.0468" font-family="Times,serif" font-size="14.00" fill="#000000">123</text>
</g>
<!-- 190a18037c64c43e6b11489df4bf0b9eb6d2c9bftest.txt&#45;&gt;190a18037c64c43e6b11489df4bf0b9eb6d2c9bf -->
<g id="edge8" class="edge">
<title>190a18037c64c43e6b11489df4bf0b9eb6d2c9bftest.txt&#45;&gt;190a18037c64c43e6b11489df4bf0b9eb6d2c9bf</title>
<path fill="none" stroke="#000000" d="M231.3553,-187.2988C231.3553,-170.8856 231.3553,-151.5124 231.3553,-135.9936"/>
<polygon fill="#000000" stroke="#000000" points="234.8554,-135.9494 231.3553,-125.9495 227.8554,-135.9495 234.8554,-135.9494"/>
</g>
<!-- e69de29bb2d1d6434b8b29ae775ad8c2e48c5391test.txt -->
<g id="node13" class="node">
<title>e69de29bb2d1d6434b8b29ae775ad8c2e48c5391test.txt</title>
<ellipse fill="none" stroke="#000000" cx="43.3553" cy="-453.5871" rx="34.394" ry="34.394"/>
<text text-anchor="middle" x="43.3553" y="-449.8871" font-family="Times,serif" font-size="14.00" fill="#000000">test.txt</text>
</g>
<!-- 5efb9bc29c482e023e40e0a2b3b7e49cec842034&#45;&gt;e69de29bb2d1d6434b8b29ae775ad8c2e48c5391test.txt -->
<g id="edge10" class="edge">
<title>5efb9bc29c482e023e40e0a2b3b7e49cec842034&#45;&gt;e69de29bb2d1d6434b8b29ae775ad8c2e48c5391test.txt</title>
<path fill="none" stroke="#000000" d="M40.043,-644.1893C40.7487,-603.5794 41.8448,-540.5084 42.5807,-498.1614"/>
<polygon fill="#000000" stroke="#000000" points="46.0806,-498.1927 42.755,-488.1334 39.0816,-498.071 46.0806,-498.1927"/>
</g>
<!-- e8598d905af5fdb792208e25f6dc0a6b8c9ee19d&#45;&gt;e69de29bb2d1d6434b8b29ae775ad8c2e48c5391new.txt -->
<g id="edge13" class="edge">
<title>e8598d905af5fdb792208e25f6dc0a6b8c9ee19d&#45;&gt;e69de29bb2d1d6434b8b29ae775ad8c2e48c5391new.txt</title>
<path fill="none" stroke="#000000" d="M165.5975,-303.7507C162.3449,-292.2877 158.7382,-279.5771 155.3556,-267.6559"/>
<polygon fill="#000000" stroke="#000000" points="158.6764,-266.5372 152.5795,-257.8724 151.9423,-268.4481 158.6764,-266.5372"/>
</g>
<!-- e8598d905af5fdb792208e25f6dc0a6b8c9ee19d&#45;&gt;190a18037c64c43e6b11489df4bf0b9eb6d2c9bftest.txt -->
<g id="edge14" class="edge">
<title>e8598d905af5fdb792208e25f6dc0a6b8c9ee19d&#45;&gt;190a18037c64c43e6b11489df4bf0b9eb6d2c9bftest.txt</title>
<path fill="none" stroke="#000000" d="M192.8572,-305.7126C199.0787,-292.1582 206.1995,-276.6449 212.6112,-262.6763"/>
<polygon fill="#000000" stroke="#000000" points="215.9263,-263.8439 216.9171,-253.2955 209.5645,-260.9237 215.9263,-263.8439"/>
</g>
<!-- b07d65218926c8f7eed55b8181170250a31da6f4&#45;&gt;e69de29bb2d1d6434b8b29ae775ad8c2e48c5391new.txt -->
<g id="edge17" class="edge">
<title>b07d65218926c8f7eed55b8181170250a31da6f4&#45;&gt;e69de29bb2d1d6434b8b29ae775ad8c2e48c5391new.txt</title>
<path fill="none" stroke="#000000" d="M111.0078,-523.6942C113.3714,-471.0609 118.5573,-378.7574 128.3553,-300.1869 129.6377,-289.9035 131.3703,-278.921 133.1793,-268.5317"/>
<polygon fill="#000000" stroke="#000000" points="136.6782,-268.849 134.9999,-258.3879 129.7883,-267.6123 136.6782,-268.849"/>
</g>
<!-- b07d65218926c8f7eed55b8181170250a31da6f4&#45;&gt;e69de29bb2d1d6434b8b29ae775ad8c2e48c5391test.txt -->
<g id="edge18" class="edge">
<title>b07d65218926c8f7eed55b8181170250a31da6f4&#45;&gt;e69de29bb2d1d6434b8b29ae775ad8c2e48c5391test.txt</title>
<path fill="none" stroke="#000000" d="M87.927,-529.6499C80.9684,-517.7747 73.2237,-504.5583 66.1679,-492.5174"/>
<polygon fill="#000000" stroke="#000000" points="69.0066,-490.4388 60.9311,-483.5805 62.9672,-493.9779 69.0066,-490.4388"/>
</g>
</g>
</svg>
